<svg id="Layer_1" data-name="Layer 1" xmlns="http://www.w3.org/2000/svg" viewBox="0 0 2828.67 81.68"><defs><style>.cls-1{fill:#e17374;}.cls-2{fill:#f3f9df;}.cls-3{fill:#e07374;}.cls-4{fill:#9fd9d7;}.cls-5{fill:#f9cacb;}.cls-6{fill:#409797;}.cls-7{fill:#439897;}.cls-8{fill:#957171;}.cls-9{fill:#df7575;}.cls-10{fill:#964040;}.cls-11{fill:#336873;}.cls-12{fill:#f3f7dd;}</style></defs><title>airplane</title><path class="cls-1" d="M0,76.09c30.89-8.65,2564.11-12,2596-14.08,10.13-.65,20.24-1.43,30.36-2.15,3.57-2.54,1.08-5-.13-7.45-2.15.19-4.31,0.47-6.47,0.56C2587.15,54.42,53,56.53,20.68,61"/><path class="cls-2" d="M2682.24,57.82c-3.19.11-8.29,0-10.7-.19-1.37-1-.24-3.48-0.34-6.59a3,3,0,0,0-3-2.79,81.57,81.57,0,0,0-25.51,3.44c-1.74.54-3.52,1-4.72,2.57-3.85-.43-3.21-4.39-5-6.42-0.68-2.08-1.29-4.2-2.78-5.9l-1.89-4c0.05-2.33-1.28-4.12-2.35-6L2624.36,29c-1.87-1.49-3.89-.48-5.86-0.34a7.75,7.75,0,0,0-4.3.08l-0.94-2.5c3.28-1.94,7.84-2.93,6.31-8.46l-7.5-17.71c4.15,0,7.5.23,10.79-.06a13.11,13.11,0,0,1,11.45,4.4c6.35,6.56,13.27,12.58,20,18.82,0.8,1.21,1.9,1,3,.63h59.09c11,0.39,22,.48,33,0l2.13,0.05,0.42,0.16,0.42-.17,31.21,0.31c2.28,0.19,2.77,0,4.78.77l0.18,0c0.34,0.7,1,1.21.77,2.21-1.23,6.82,2,11.26,8.86,11.77,5.76,0.43,11.55.53,17.32,0.78A22.68,22.68,0,0,1,2826,45.09c4.23,3.91,3.36,8.41-1.95,10.45-3.3,1.27-6.8,1.45-10.3,1.73-19.63,1.55-39.3.8-59,.84A29.16,29.16,0,0,0,2741.86,61c-11.72,5.6-24,10.17-35.26,16.52-11.06,6.23-22.43,3.66-34.15,3.42l26.82-21.72-0.35-1.15h-10.75C2686.19,58,2684.21,57.76,2682.24,57.82Zm35.21-23.08c0-.65.22-1.76,0-1.87-3.45-1.53-7.12-.77-10.67-0.61-2.63.13-2.75,3.05-2.53,4.69,0.57,4.11,4.22.36,5.35,1.91C2713.36,38.79,2717.2,39.92,2717.44,34.74Zm42.88,0a3.45,3.45,0,0,0-.15-1.9c-1.14-1.78-11.68-.61-12.55,1.33-1.84,4.09-1.12,4.71,6.94,4.7C2756.34,38.92,2760,39.71,2760.32,34.71Zm-34.67,1.58c0,0.64-.18,1.75.06,1.85,3.47,1.46,7.14.73,10.7,0.54,2.7-.14,2.71-3.28,2.48-4.71-0.61-3.88-4.18-.48-5.38-1.84C2729.68,32.17,2725.86,31.11,2725.66,36.3Zm-32.09,2.42c2.66-.48,2.25-3.08,2.53-4.79,0.4-2.42-1.87-1.68-3.16-1.77-1.81-.13-3.67.17-5.45-0.08-3.8-.53-4.67,2-4.76,4.75-0.12,3.5,2.88,1.43,4.41,2a6,6,0,0,0,2,0V38.76A25.21,25.21,0,0,0,2693.57,38.72Z"/><path class="cls-3" d="M15.51,16.58C32.09,19.17,2550.26,21,2567,22c13.61,0.88,27.22,1.56,40.83,2.32a1.94,1.94,0,0,0,.53-0.3c0.31-2.1,2.2-3.68,2-6-12.76-2.69-25.81-2.26-38.71-3.58"/><path class="cls-4" d="M11.09,24.59c29.21,2.55,2560,4.19,2589.25,5.76l9.41-.4c-1.71-1.49-1.85-3.52-1.93-5.58-13.61-.77-27.23-1.45-40.84-2.32C2550.26,21,32.09,19.17,15.51,16.58"/><path class="cls-5" d="M20.68,61C53,56.53,2587.15,54.42,2619.77,53c2.16-.1,4.31-0.37,6.46-0.56-0.55-2.84-2.49-3.6-5.09-3.4-3.27.25-6.54,0.46-9.81,0.69C2575.4,51.88,37.95,54.06,2,56.24"/><path class="cls-6" d="M2716.36,23.91c11,0.39,22,.48,33,0-6-4.06-11.85-8.46-18.13-12.06-5.89-3.38-12.59-1.62-18.92-1.21-2.15.14-1,2.15-.44,3.54C2713.25,17.43,2716.14,20.06,2716.36,23.91Z"/><path class="cls-7" d="M2668.19,48.25a81.57,81.57,0,0,0-25.51,3.44c-1.74.54-3.52,1-4.72,2.57,0.22,1.74.27,3.55,2.1,4.56a61.13,61.13,0,0,0,27.48,4C2665.91,57.9,2665.48,53,2668.19,48.25Z"/><path class="cls-4" d="M2788.45,25c0.34,0.7,1,1.21.77,2.21-1.23,6.82,2,11.26,8.86,11.77,5.76,0.43,11.55.53,17.32,0.78-1.1-1-2.59-1.3-3.5-2.64C2806.28,28.91,2797.58,26.53,2788.45,25Z"/><path class="cls-8" d="M2640.05,58.82c-1.82-1-1.88-2.82-2.1-4.56-3.86-.43-3.21-4.39-5-6.41l-8.37.12a62.53,62.53,0,0,0-13.21,1.73c3.27-.23,6.54-0.44,9.8-0.69,2.6-.2,4.53.56,5.09,3.4,1.21,2.47,3.7,4.91.13,7.45A46.67,46.67,0,0,0,2640.05,58.82Z"/><path class="cls-4" d="M2668.19,48.25c-2.7,4.76-2.27,9.65-.65,14.6,0.64,0,1.76.26,1.86,0,3.13-6.89,2.06-3.81,1.8-11.85A3,3,0,0,0,2668.19,48.25Z"/><path class="cls-8" d="M2613.26,26.3c3.28-1.94,7.84-2.93,6.31-8.46l-7.25.27q-0.44,3.37-.88,6.74Z"/><path class="cls-9" d="M2611.44,24.85l0.88-6.74h-2c0.22,2.28-1.67,3.86-2,6Z"/><path class="cls-6" d="M2654.26,23.28c0.8,1.21,1.9,1,3,.63Z"/><path class="cls-6" d="M2751.45,23.93l0.42,0.16,0.42-.17h-0.84Z"/><path class="cls-10" d="M14.68,35.16c20.77,1.41,2543.13.81,2563.92,1.63,11.91,0.47,23.83.66,35.75,1,4.66-2.16,9.26.5,13.9,0.13,0.05-2.33-1.29-4.12-2.35-6-8.55.05-17.14,0.77-25.55-1.53-29.26-1.56-2560-3.21-2589.25-5.76"/><path class="cls-11" d="M2709.58,38.86c2.35,0,7.62,1.05,7.86-4.12,0-.65.22-1.76,0-1.87-3.45-1.53-7.12-.77-10.67-0.61-2.63.13-2.53,2.19-2.53,4.69S2707.23,38.86,2709.58,38.86Z"/><path class="cls-11" d="M2754.55,38.85c1.79,0.07,5.45.85,5.77-4.14a3.45,3.45,0,0,0-.15-1.9c-1.14-1.78-11.68-.61-12.55,1.33C2745.77,38.24,2746.5,38.86,2754.55,38.85Z"/><path class="cls-11" d="M2733.52,32.14c-3.84,0-7.67-1-7.87,4.16,0,0.64-.18,1.75.06,1.85,3.47,1.46,7.14.73,10.7,0.54,2.7-.14,2.71-3.28,2.48-4.71C2738.29,30.1,2734.72,33.5,2733.52,32.14Z"/><path class="cls-11" d="M2689.11,38.76a25.21,25.21,0,0,0,4.46,0c2.66-.48,2.25-3.08,2.53-4.79,0.4-2.42-1.87-1.68-3.16-1.77-1.81-.13-3.67.17-5.45-0.08-3.8-.53-4.67,2-4.76,4.75-0.12,3.5,2.88,1.43,4.41,2a6,6,0,0,0,2,0V38.76Z"/><path class="cls-8" d="M2600.34,30.34c8.41,2.31,17,1.58,25.55,1.53L2624.36,29l-5.86-.34a7.76,7.76,0,0,0-4.3.08l-4.45,1.16Z"/><path class="cls-11" d="M2624.55,48l8.37-.12c-0.68-2.09-1.29-4.21-2.78-5.9l-6.31.3Z"/><path class="cls-8" d="M2623.83,42.24l6.31-.3-1.9-4.05c-4.64.37-9.25-2.29-13.9-.13,2.66,0.65,6.86-1.69,7.11,3.66Z"/><path class="cls-7" d="M2609.75,29.95l4.45-1.16-0.93-2.5-1.83-1.45-3.09-.77a1.93,1.93,0,0,1-.53.3C2607.9,26.42,2608,28.46,2609.75,29.95Z"/><path class="cls-7" d="M2618.5,28.71l5.86,0.34C2622.49,27.55,2620.47,28.57,2618.5,28.71Z"/><path class="cls-7" d="M2,56.24c35.92-2.18,2573.37-4.36,2609.3-6.54A62.69,62.69,0,0,1,2624.55,48q-0.36-2.86-.72-5.73l-2.38-.83a47.37,47.37,0,0,1-5.84.91C2581.16,43.47,45.17,44.6,10.72,45.65"/><path class="cls-12" d="M10.72,45.65c34.45-1.05,2570.44-2.18,2604.89-3.33a47.37,47.37,0,0,0,5.84-.91c-0.25-5.34-4.45-3-7.11-3.66-11.92-.31-23.84-0.5-35.75-1C2557.81,36,35.45,36.57,14.68,35.16"/><path class="cls-2" d="M2327.18,24"/></svg>