<?xml version="1.0" encoding="utf-8"?>
<!-- Generator: Adobe Illustrator 21.0.0, SVG Export Plug-In . SVG Version: 6.00 Build 0)  -->
<svg version="1.1" id="Layer_1" xmlns="http://www.w3.org/2000/svg" xmlns:xlink="http://www.w3.org/1999/xlink" x="0px" y="0px"
	 viewBox="0 0 543 480" style="enable-background:new 0 0 543 480;" xml:space="preserve">
<style type="text/css">
	.st0{fill:#EBE0CC;}
	.st1{fill:#EBD6A7;}
	.st2{fill:#FFFFFF;}
	.st3{fill:none;}
	.st4{font-family:'Raleway-Light';}
	.st5{font-size:22px;}
	.st6{fill:#EBDBC2;}
	.st7{font-family:'GreatVibes-Regular';}
	.st8{font-size:38px;}
	.st9{fill:#E5D4BA;}
	.st10{fill:#003251;}
	.st11{fill:#AF0000;}
</style>
<title>complete letter</title>
<image style="overflow:visible;opacity:0.25;enable-background:new    ;" width="543" height="480" xlink:href="B274FFCAF24D7D1F.png"  transform="matrix(1 0 0 1 0 -1.464844e-05)">
</image>
<path class="st0" d="M48.2,124.4l-40,262.3l472.7,70.7l39.3-262.9L374.1,48.3c0,0-30.6-33.9-66.1-38.9s-69.5,16.5-69.5,16.5
	L48.2,124.4"/>
<path class="st1" d="M91.3,104c4,6,14.1,12.4,23.5,9.7s37.6-16.9,37.6-16.9l88-46c0,0,36.8-18.7,61.8-13s51.3,27,51.3,27l97.3,94
	c0,0,30.3,25.7,48.8,15.5L375.1,49.7c0,0-30.6-33.9-66.1-38.9s-69.5,16.5-69.5,16.5L91.3,104"/>
<image style="overflow:visible;opacity:0.5;enable-background:new    ;" width="450" height="316" xlink:href="B274FFCAF24D7D1D.png"  transform="matrix(1 0 0 1 41 70)">
</image>
<rect x="56.8" y="85.4" class="st2" width="419.1" height="285.1"/>
<rect x="54.9" y="187.9" class="st3" width="423" height="125"/>
<text transform="matrix(1 0 0 1 54.89 204)"><tspan x="0" y="0" class="st4 st5">El llamarlo destino puede sonar cursi,</tspan><tspan x="0" y="26.4" class="st4 st5">Mas es exactamente como las cosas </tspan><tspan x="0" y="52.8" class="st4 st5">sucedierían. Fernando y Hannah llegarían </tspan><tspan x="0" y="79.2" class="st4 st5">a encontrarse..  </tspan></text>
<polygon class="st6" points="46.7,124 250.5,345 518.7,194 480,457.3 7.3,386.7 "/>
<text transform="matrix(1 0 0 1 159.15 144)" class="st7 st8">Nuestra Historia</text>
<path class="st9" d="M208.2,303.3c0,0,24-13.3,52.7-10s50.7,21.3,51.3,21.3l168.7,142.7L8.2,386.7L208.2,303.3z"/>
<polygon class="st10" points="40.5,176.7 44.3,149.3 52.2,144 49,171.2 "/>
<polygon class="st11" points="31,238 34.8,210.7 42.7,205.3 39.5,232.5 "/>
<polygon class="st10" points="22.5,296.2 26.3,268.8 34.2,263.5 31,290.7 "/>
<polygon class="st11" points="13,357.5 16.8,330.2 24.7,324.8 21.5,352 "/>
<polygon class="st10" points="43.8,391.3 16.5,387.4 11.2,379.6 38.3,382.8 "/>
<polygon class="st11" points="97.8,399.1 70.5,395.3 65.2,387.4 92.3,390.6 "/>
<polygon class="st10" points="151.5,407.3 124.2,403.4 118.8,395.6 146,398.8 "/>
<polygon class="st11" points="205.5,415.1 178.2,411.3 172.8,403.4 200,406.6 "/>
<polygon class="st10" points="260.8,424.3 233.5,420.4 228.2,412.6 255.3,415.8 "/>
<polygon class="st11" points="314.8,432.1 287.5,428.3 282.2,420.4 309.3,423.6 "/>
<polygon class="st10" points="368.5,440.1 341.2,436.2 335.8,428.4 363,431.6 "/>
<polygon class="st11" points="422.5,448 395.2,444.1 389.8,436.3 417,439.5 "/>
<polygon class="st10" points="477.3,456.4 450,452.6 444.7,444.7 471.8,447.9 "/>
<polygon class="st10" points="502.5,252.9 506.2,225.5 514,220.2 511,247.4 "/>
<polygon class="st11" points="494,312.9 497.7,285.6 505.5,280.2 502.4,307.4 "/>
<polygon class="st10" points="484.5,370.6 488.2,343.2 496,337.9 493,365 "/>
<polygon class="st11" points="476,430.6 479.7,403.3 487.5,397.9 484.4,425.1 "/>
</svg>
